<svg width="420" height="571" viewBox="0 0 420 571" fill="none" xmlns="http://www.w3.org/2000/svg">
<g clip-path="url(#clip0_2913_72559)">
<mask id="mask0_2913_72559" style="mask-type:luminance" maskUnits="userSpaceOnUse" x="0" y="0" width="420" height="571">
<path d="M420 0H0V571H420V0Z" fill="white"/>
</mask>
<g mask="url(#mask0_2913_72559)">
<path d="M420 0H0V571H420V0Z" fill="white"/>
<path d="M104.941 110.162C86.4354 110.162 67.9296 110.162 49.4238 110.162C39.7325 110.162 39.6529 110.05 40.8324 100.203C45.9969 56.9462 80.7928 24.8792 124.69 24.4316C182.057 23.8561 239.439 23.8561 296.805 24.4316C338.36 24.8472 373.267 55.2358 379.611 94.9919C386.417 137.641 363.321 176.726 322.914 190.937C320.762 191.689 318.658 192.584 316.778 194.774C334.678 194.774 352.578 194.774 370.478 194.774C377.395 194.774 380.865 198.291 380.886 205.324C380.902 227.704 380.759 250.084 380.998 272.448C381.062 278.314 379.802 281.016 373.156 281C265.054 280.824 156.952 280.808 48.85 281C41.7091 281 39.9079 278.634 40.0036 271.76C40.3861 246.999 40.131 222.205 40.1629 197.443C40.2107 156.92 63.339 125.269 101.865 112.912C102.869 112.592 103.841 112.176 104.83 111.809C104.861 111.249 104.893 110.706 104.941 110.146V110.162Z" fill="black"/>
<path d="M315.966 375.918C335.461 382.757 351.986 392.775 363.934 409.073C384.087 436.587 387.717 466.545 373.119 497.287C358.361 528.364 332.458 545.54 297.996 546.148C239.413 547.202 180.782 547.346 122.215 546.196C74.6644 545.253 39.4152 508.631 38.4517 461.273C37.8575 432.528 37.8414 403.752 38.4517 375.007C39.4473 326.754 76.3827 290.516 124.848 290.228C181.842 289.893 238.835 289.957 295.828 290.228C340.44 290.436 376.203 322.983 381.245 366.859C382.064 373.937 380.217 376.254 372.895 376.078C353.929 375.631 334.963 375.934 315.998 375.934L315.966 375.918Z" fill="black"/>
</g>
</g>
<defs>
<clipPath id="clip0_2913_72559">
<rect width="420" height="571" fill="white"/>
</clipPath>
</defs>
</svg>
